<?xml version="1.0" encoding="utf-8"?>
<!-- Generator: Adobe Illustrator 17.0.0, SVG Export Plug-In . SVG Version: 6.00 Build 0)  -->
<!DOCTYPE svg PUBLIC "-//W3C//DTD SVG 1.1//EN" "http://www.w3.org/Graphics/SVG/1.1/DTD/svg11.dtd" [
	<!ENTITY ns_flows "http://ns.adobe.com/Flows/1.0/">
	<!ENTITY ns_extend "http://ns.adobe.com/Extensibility/1.0/">
	<!ENTITY ns_ai "http://ns.adobe.com/AdobeIllustrator/10.0/">
	<!ENTITY ns_graphs "http://ns.adobe.com/Graphs/1.0/">
]>
<svg version="1.1" id="Layer_1" xmlns:x="&ns_extend;" xmlns:i="&ns_ai;" xmlns:graph="&ns_graphs;"
	 xmlns="http://www.w3.org/2000/svg" xmlns:xlink="http://www.w3.org/1999/xlink" xmlns:a="http://ns.adobe.com/AdobeSVGViewerExtensions/3.0/"
	 x="0px" y="0px" width="59px" height="63px" viewBox="0 0 59 63" enable-background="new 0 0 59 63" xml:space="preserve">
<path fill="#231F20" d="M13.722,22.552c0.124,0.748,0.413,1.222,0.698,1.52c0.678,4.518,4.454,8.71,7.907,8.71
	c4.024,0,7.689-4.538,8.394-8.699c0.292-0.295,0.584-0.772,0.712-1.53c0.228-0.846,0.524-2.316,0.007-3.007
	c-0.027-0.034-0.057-0.07-0.084-0.097c0.487-1.775,1.101-5.447-1.098-7.948c-0.195-0.248-1.43-1.722-4.064-2.5l-1.259-0.433
	c-2.074-0.641-3.376-0.785-3.433-0.792c-0.094-0.007-0.191,0-0.282,0.023c-0.07,0.02-0.319,0.087-0.51,0.06
	c-0.497-0.07-1.242,0.185-1.373,0.235c-0.171,0.07-4.189,1.678-5.407,5.42c-0.114,0.302-0.601,1.893,0.047,5.793
	c-0.097,0.067-0.185,0.148-0.258,0.245C13.195,20.236,13.49,21.706,13.722,22.552z"/>
<path fill="#231F20" d="M29.792,51.027c-0.742-0.416-1.547-0.816-2.406-1.195c-0.416-0.185-0.839-0.359-1.259-0.524
	c-0.329-0.124-0.718-0.285-0.99-0.356l-3.981-1.074l7.448-15.164l3.192,2.014c0.675,0.423,1.171,0.782,1.715,1.181l0.114,0.084
	c0.54,0.399,1.071,0.809,1.591,1.232c1.131,0.913,2.131,1.806,3.061,2.729c0.07,0.07,0.138,0.134,0.208,0.205
	c0.312-0.346,0.618-0.654,0.923-0.987c-0.389-1.158-0.863-2.229-1.44-3.088c0,0-0.819-1.118-2.762-1.863c0,0-0.164-0.05-0.416-0.134
	c-1.728-0.809-3.37-1.329-3.37-1.329c-0.352-0.128-0.661-0.252-0.94-0.373c-1.175-0.581-2.151-1.235-2.353-1.853
	c0,0,0.678,6.562-5.058,6.716l-0.799-0.037c-5.199-0.463-5.545-6.692-5.545-6.692c-0.544,1.708-7.082,3.695-7.082,3.695
	c-1.943,0.745-2.766,1.866-2.766,1.866c-2.873,4.262-3.212,13.747-3.212,13.747c0.037,2.168,0.973,2.393,0.973,2.393
	c6.609,2.95,16.976,3.47,16.976,3.47c0.56,0.013,1.081-0.017,1.601-0.047l0.013,0.054c0,0,5.061-0.258,10.368-1.42L32.95,53.43
	C32.423,52.735,31.245,51.839,29.792,51.027z"/>
<path fill="#231F20" d="M27.906,30.812c0.07-0.091,0.148-0.181,0.222-0.282c-0.017-0.06-0.02-0.091-0.02-0.091
	C28.043,30.57,27.969,30.681,27.906,30.812z"/>
<path fill="#231F20" d="M16.756,30.51l-0.017-0.07l-0.013,0.074c0.003-0.013,0.017-0.027,0.02-0.04
	C16.749,30.476,16.753,30.49,16.756,30.51z"/>
<path fill="#231F20" d="M50.258,33.554c-1.883,1.329-3.638,2.833-5.31,4.414c-1.675,1.591-3.262,3.266-4.789,4.994
	c-0.567,0.644-1.118,1.296-1.665,1.95c-0.007-0.01-0.013-0.02-0.017-0.03c-0.806-1.074-1.678-2.031-2.584-2.927
	c-0.906-0.893-1.846-1.718-2.813-2.504c-0.487-0.389-0.977-0.772-1.477-1.148c-0.52-0.376-0.977-0.715-1.614-1.118l-3.967,8.072
	c0.362,0.097,0.889,0.302,1.336,0.477c0.473,0.181,0.936,0.376,1.4,0.581c0.926,0.409,1.829,0.856,2.692,1.336
	c1.705,0.953,3.293,2.114,4.199,3.299l3.051,4.001l1.755-3.806c0.883-1.906,1.94-3.9,3.024-5.8c1.094-1.913,2.262-3.789,3.527-5.598
	c1.265-1.809,2.621-3.558,4.138-5.169c1.517-1.601,3.192-3.091,5.189-4.148C54.165,31.074,52.138,32.238,50.258,33.554z"/>
</svg>
