<?xml version="1.0" encoding="utf-8"?>
<!-- Generator: Adobe Illustrator 17.0.0, SVG Export Plug-In . SVG Version: 6.00 Build 0)  -->
<!DOCTYPE svg PUBLIC "-//W3C//DTD SVG 1.1//EN" "http://www.w3.org/Graphics/SVG/1.1/DTD/svg11.dtd">
<svg version="1.1" id="Layer_1" xmlns="http://www.w3.org/2000/svg" xmlns:xlink="http://www.w3.org/1999/xlink" x="0px" y="0px"
	 width="59px" height="63px" viewBox="0 0 59 63" enable-background="new 0 0 59 63" xml:space="preserve">
<g>
	<path fill="#222222" d="M13.065,27.991l-1.829,3.393l-4.03,19.545h4.261l3.681-22.938H13.065z M13.065,27.991"/>
	<path fill="#222222" d="M18.549,6.8h-2.244l-2.933,14.225h2.894L18.549,6.8z M18.549,6.8"/>
	<path fill="#222222" d="M43.894,27.991h-2.084l3.681,22.938h4.261l-4.03-19.545L43.894,27.991z M43.894,27.991"/>
	<path fill="#222222" d="M43.587,21.025L40.654,6.8h-2.244l2.283,14.225H43.587z M43.587,21.025"/>
	<path fill="#222222" d="M26.957,19.682h3.045l0.064,1.343h7.086L34.87,6.8H22.09l-2.283,14.225h7.086L26.957,19.682z M27.548,7.306
		h1.864l0.295,6.188h-2.454L27.548,7.306z M27.548,7.306"/>
	<path fill="#222222" d="M18.689,27.991l-3.68,22.938h10.478l0.289-6.494h5.408l0.289,6.494h10.478l-3.68-22.938H18.689z
		 M26.071,38.246l0.295-6.188h4.227l0.296,6.188H26.071z M26.071,38.246"/>
	<path fill="#222222" d="M53.957,22.446H3.002v4.123h4.823l-1.713,8.713h1.821l4.697-8.713h31.7l4.697,8.713h1.821l-1.713-8.713
		h4.823V22.446z M53.957,22.446"/>
</g>
</svg>
