<?xml version="1.0" encoding="utf-8"?>
<!-- Generator: Adobe Illustrator 17.0.0, SVG Export Plug-In . SVG Version: 6.00 Build 0)  -->
<!DOCTYPE svg PUBLIC "-//W3C//DTD SVG 1.1//EN" "http://www.w3.org/Graphics/SVG/1.1/DTD/svg11.dtd">
<svg version="1.1" id="Layer_1" xmlns="http://www.w3.org/2000/svg" xmlns:xlink="http://www.w3.org/1999/xlink" x="0px" y="0px"
	 width="59px" height="63px" viewBox="0 0 59 63" enable-background="new 0 0 59 63" xml:space="preserve">
<g>
	<path fill="#222222" d="M49.211,21.5c0.995-0.401,2.005-0.765,3.026-1.106c0,0-0.243-0.002-0.698-0.005
		c-0.047,0-0.054,0.001-0.041,0.001c-0.882,0.001-1.763,0.027-2.642,0.075L44.214,6.922l-0.314-0.917l-0.458,0.857l-8.929,16.705
		c-1.135,0.436-2.254,0.912-3.356,1.425L24.465,7.073l-0.388-1.039L23.68,7.07L11.109,39.88c-0.913,0.972-1.805,1.965-2.669,2.983
		c-1.295,1.525-2.534,3.099-3.705,4.722c-0.961,1.332-1.891,2.695-2.717,4.116l-0.016,0.034h10.079l2.199-4.189l2.904,0.003
		c-0.902,1.775-1.545,3.255-1.927,4.187H26.35c0.77-4.11,2.048-8.153,3.852-11.928c0.595-1.245,1.249-2.463,1.962-3.645
		l3.342,11.351h4.061l-5.374-14.389c0.957-1.295,1.996-2.527,3.121-3.681c2.801-2.871,6.097-5.234,9.707-6.98
		c0.047-0.023,0.095-0.044,0.142-0.067l4.199,17.089h4.012L49.211,21.5z M15.969,35.143l8.095-26.496l5.1,17.323
		c-0.441,0.227-0.879,0.46-1.314,0.699c-3.716,2.043-7.209,4.488-10.446,7.225C16.92,34.303,16.442,34.721,15.969,35.143
		L15.969,35.143z M20.077,42.467l-2.739,0c0,0,2.433-3.282,3.688-4.817l2.513,0.009C22.341,39.124,21.176,40.741,20.077,42.467
		L20.077,42.467z M27.691,33.287l-2.575,0.014l5.103-3.837l0.417,1.503C29.637,31.655,28.652,32.429,27.691,33.287L27.691,33.287z
		 M34.506,28.159L33.218,27.6l4.758-2.819l1.322,0.123C37.166,26.095,34.506,28.159,34.506,28.159L34.506,28.159z M41.617,23.535
		l-0.938-0.162c0,0,2.487-1.225,5.339-2.037l0.269,0.053C43.971,22.171,41.617,23.535,41.617,23.535L41.617,23.535z M39.723,21.882
		c-0.596,0.156-1.189,0.326-1.778,0.505l5.772-14.019l3.013,12.261C44.369,20.864,42.028,21.276,39.723,21.882L39.723,21.882z
		 M39.723,21.882"/>
</g>
</svg>
