<?xml version="1.0" encoding="utf-8"?>
<!-- Generator: Adobe Illustrator 17.0.0, SVG Export Plug-In . SVG Version: 6.00 Build 0)  -->
<!DOCTYPE svg PUBLIC "-//W3C//DTD SVG 1.1//EN" "http://www.w3.org/Graphics/SVG/1.1/DTD/svg11.dtd">
<svg version="1.1" id="Layer_1" xmlns="http://www.w3.org/2000/svg" xmlns:xlink="http://www.w3.org/1999/xlink" x="0px" y="0px"
	 width="59px" height="63px" viewBox="0 0 59 63" enable-background="new 0 0 59 63" xml:space="preserve">
<g>
	<g>
		<path fill="#4C6173" d="M24.182,34.326c1.094-0.261,2.618-0.88,2.816,0.004c0.236,1.052,0.528,3.545,0.834,5.968
			c0.066,0.522-0.604,0.793-0.77,0.844c-0.745,0.225-1.385,0.296-2.21,0.407l-0.673-7.219
			C24.179,34.329,24.181,34.327,24.182,34.326z"/>
		<path fill="#4C6173" d="M20.861,34.326c-1.382-0.329-2.48-1.098-2.721-0.013c-0.252,1.136-0.529,3.625-0.82,5.949
			c-0.075,0.595,0.546,0.852,0.746,0.903c0.715,0.186,1.331,0.277,2.126,0.384l0.672-7.219
			C20.865,34.329,20.862,34.327,20.861,34.326z"/>
		<path fill="#27557D" d="M19.784,41.408l-0.036,0.085c1.702,0.215,3.795,0.22,5.502,0.011c-0.016-0.035-0.031-0.066-0.046-0.096
			H19.784z"/>
		<path fill="#688096" d="M19.101,41.391c0.378-1.088-0.484-6.184-0.96-7.122c0.271-0.961,2.791-1.174,3.462-1.721
			c0.318,0.28,0.545,0.344,0.905,0.344s0.599-0.073,0.918-0.353c0.496,0.405,3.098,0.721,3.543,1.682
			c-0.506,1.073-1.435,6.187-1.033,7.166C24.241,41.719,20.844,41.743,19.101,41.391z"/>
		<polygon fill="#FFFFFF" points="20.809,33.009 20.728,35.152 22.521,39.704 24.288,35.152 24.178,32.951 23.425,32.538 
			21.602,32.548 		"/>
		<rect x="21.603" y="31.799" fill="#D1A886" width="1.791" height="1.856"/>
		<path fill="#FCB024" d="M22.805,34.801l0.124-0.263l-0.421-1.022l-0.415,1.005l0.132,0.28
			C22.419,34.801,22.611,34.801,22.805,34.801z"/>
		<polygon fill="#CCCCCC" points="21.602,32.548 22.508,33.516 21.863,35.239 21.066,32.903 		"/>
		<polygon fill="#27557D" points="21.072,32.856 22.508,39.727 20.144,35.958 20.454,35.3 19.78,34.762 20.696,33.063 		"/>
		<polygon fill="#CCCCCC" points="23.425,32.539 22.508,33.516 23.153,35.239 23.962,32.894 		"/>
		<polygon fill="#FCB024" points="22.226,35.442 22.805,35.442 23.107,38.347 22.508,39.727 21.932,38.347 		"/>
		<polygon fill="#FFFFFF" points="21.602,32.548 22.508,33.516 21.85,34.813 21.066,32.903 		"/>
		<polygon fill="#3F73A1" points="21.072,32.856 22.508,39.727 20.374,35.657 20.728,35.152 20.045,34.621 20.695,33.063 		"/>
		<polygon fill="#27557D" points="23.979,32.841 22.508,39.727 24.873,35.958 24.561,35.3 25.236,34.762 24.512,33.088 		"/>
		<polygon fill="#3F73A1" points="23.979,32.841 22.508,39.727 24.642,35.657 24.288,35.152 24.971,34.621 24.512,33.088 		"/>
		<polygon fill="#FFFFFF" points="23.425,32.538 22.508,33.516 23.166,34.813 23.962,32.894 		"/>
		<path fill="#FCB024" d="M22.226,34.753h0.579c0.13,0.269,0.12,0.503,0,0.733h-0.579C22.106,35.256,22.096,35.022,22.226,34.753z"
			/>
		<path fill="#27557D" d="M22.427,41.657c0.016-0.504,0.053-1.104,0.114-2.002c0.062,0.899,0.103,1.498,0.121,2.002
			C22.583,41.658,22.505,41.658,22.427,41.657z"/>
		<polygon fill="#FFFFFF" points="20.537,33.065 20.759,35.118 22.543,39.646 24.302,35.118 24.524,33.065 23.674,32.517 
			21.388,32.517 		"/>
		<rect x="21.388" y="31.782" fill="#D1A886" width="2.266" height="1.846"/>
		<path fill="#F2CAA9" d="M22.531,32.869c0.893,0,1.719-1.021,2.155-2.271c0.026,0.027,0.055,0.043,0.086,0.048
			c0.177,0.029,0.381-0.305,0.455-0.745c0.073-0.441-0.011-0.822-0.189-0.853c-0.012-0.002-0.025-0.002-0.038-0.001
			c0.087-1.55-0.555-2.982-2.469-2.982c-1.915,0-2.557,1.434-2.469,2.985c-0.019-0.006-0.039-0.007-0.058-0.003
			c-0.177,0.029-0.262,0.411-0.189,0.853c0.073,0.44,0.277,0.774,0.455,0.745c0.038-0.007,0.072-0.029,0.1-0.064
			C20.804,31.84,21.634,32.869,22.531,32.869z"/>
		<path fill="#B55C46" d="M25,29.047c0.087-1.55-0.556-2.982-2.47-2.982c-1.915,0-2.557,1.434-2.469,2.985
			c0.155,0.038,0.316,0.322,0.388,0.691c0.124,0.084,0.215,0.035,0.215-0.278c0-0.922,0.114-1.74,0.719-1.934
			c0.576-0.186,0.704,0.222,1.143,0.222c0.439,0,0.578-0.383,1.143-0.222c0.586,0.168,0.719,1.012,0.719,1.934
			c0,0.3,0.083,0.357,0.201,0.287C24.664,29.362,24.838,29.065,25,29.047z"/>
		<path fill="#93B9DB" d="M22.827,34.77l0.124-0.262l-0.42-1.017l-0.412,1.001l0.132,0.279C22.442,34.77,22.634,34.77,22.827,34.77z
			"/>
		<polygon fill="#CCCCCC" points="21.388,32.517 22.531,33.49 21.89,35.206 20.856,32.872 		"/>
		<polygon fill="#4C6173" points="20.856,32.872 22.531,39.671 20.179,35.921 20.488,35.266 19.817,34.731 20.537,33.065 		"/>
		<polygon fill="#CCCCCC" points="23.674,32.517 22.531,33.49 23.172,35.206 24.207,32.872 		"/>
		<polygon fill="#93B9DB" points="22.25,35.407 22.827,35.407 23.126,38.297 22.531,39.671 21.958,38.297 		"/>
		<path fill="#B55C46" d="M24.588,27.52c-0.248,0.494-2.289,1.686-3.114,1.751c0.37-0.344,1.239-1.363,1.128-1.416
			c-0.123-0.059-1.439,0.968-2.141,1.205C20.318,26.084,22.473,26.18,24.588,27.52z"/>
		<path fill="#B55C46" d="M23.426,27.027c0.106,0.494,0.821,1.958,1.177,2.021C24.959,29.113,24.979,25.747,23.426,27.027z"/>
		<polygon fill="#FFFFFF" points="21.388,32.517 22.531,33.49 21.875,34.782 20.856,32.872 		"/>
		<polygon fill="#688096" points="20.856,32.872 22.531,39.671 20.407,35.621 20.759,35.118 20.08,34.589 20.537,33.065 		"/>
		<polygon fill="#4C6173" points="24.207,32.872 22.531,39.671 24.883,35.921 24.574,35.266 25.245,34.731 24.524,33.065 		"/>
		<polygon fill="#688096" points="24.207,32.872 22.531,39.671 24.654,35.621 24.302,35.118 24.981,34.589 24.524,33.065 		"/>
		<polygon fill="#FFFFFF" points="23.674,32.517 22.531,33.49 23.186,34.782 24.207,32.872 		"/>
		<path fill="#93B9DB" d="M22.25,34.722h0.577c0.129,0.267,0.119,0.501,0,0.728H22.25C22.131,35.222,22.121,34.989,22.25,34.722z"/>
		<path fill="#27557D" d="M22.386,41.657c0.094,0.001,0.189,0.001,0.283,0c0.035-0.487-0.069-1.787-0.141-2.002
			C22.456,39.827,22.352,41.143,22.386,41.657z"/>
	</g>
	<g>
		<path fill="#3F73A1" d="M7.259,34.559c1.059-0.253,1.792-0.951,1.984-0.095c0.229,1.019,0.742,3.64,1.039,5.985
			c0.064,0.506-0.074,0.66-0.235,0.709c-0.722,0.219-1.341,0.286-2.139,0.394l-0.651-6.989C7.255,34.561,7.258,34.559,7.259,34.559z
			"/>
		<path fill="#BA9D3F" d="M8.731,30.952C8.7,33.872,6.619,35.03,5.634,35.03c-0.984,0-3.282-0.768-3.293-3.734
			c-0.007-1.995,0.295-5.81,4.424-4.555C8.15,26.665,8.763,28.032,8.731,30.952z"/>
		<path fill="#3F73A1" d="M4.042,34.559c-1.338-0.319-1.783-1.017-2.016,0.032c-0.244,1.1-0.726,3.625-1.01,5.875
			c-0.073,0.577,0.124,0.662,0.319,0.714c0.692,0.179,1.29,0.268,2.058,0.372l0.651-6.989C4.045,34.561,4.043,34.559,4.042,34.559z"
			/>
		<path fill="#27557D" d="M3,41.416l-0.035,0.082c1.648,0.208,3.674,0.212,5.327,0.011c-0.015-0.034-0.03-0.065-0.045-0.093H3z"/>
		<path fill="#5A8FBD" d="M2.91,41.491c0.467-1.349,0.197-1.746-0.416-3.216c-0.624-1.499,0.643-2.302-0.299-4.156
			c0.836-0.536,1.915-0.753,2.564-1.282c0.308,0.271,0.528,0.333,0.877,0.333s0.58-0.071,0.889-0.342
			c0.481,0.391,1.712,0.722,2.586,1.291c-0.899,1.904,0.318,2.218-0.299,4.156c-0.472,1.48-1.208,1.562-0.521,3.234
			C6.619,41.713,4.567,41.706,2.91,41.491z"/>
		<polygon fill="#FFFFFF" points="3.991,33.284 3.913,35.358 5.649,39.765 7.361,35.358 7.254,33.227 6.525,32.828 4.76,32.837 		
			"/>
		<rect x="4.76" y="32.112" fill="#D1A886" width="1.733" height="1.796"/>
		<path fill="#F2CAA9" d="M5.636,33.17c0.868,0,1.673-0.994,2.098-2.211C7.759,30.985,7.787,31,7.818,31.006
			c0.173,0.029,0.371-0.296,0.443-0.725c0.071-0.429-0.011-0.801-0.184-0.829c-0.012-0.002-0.025-0.002-0.037-0.001
			c0.085-1.508-0.54-2.902-2.402-2.902c-1.863,0-2.489,1.395-2.402,2.906c-0.019-0.004-0.038-0.006-0.056-0.002
			c-0.173,0.029-0.255,0.4-0.184,0.829c0.072,0.429,0.269,0.754,0.443,0.725c0.037-0.007,0.069-0.028,0.097-0.063
			C3.957,32.168,4.765,33.17,5.636,33.17z"/>
		<path fill="#FC8D25" d="M5.924,35.019l0.121-0.255l-0.408-0.989l-0.402,0.974l0.128,0.271C5.55,35.019,5.737,35.019,5.924,35.019z
			"/>
		<polygon fill="#CCCCCC" points="4.76,32.837 5.636,33.774 5.012,35.443 4.241,33.181 		"/>
		<polygon fill="#3F73A1" points="4.247,33.136 5.636,39.789 3.348,36.139 3.648,35.502 2.995,34.982 3.882,33.337 		"/>
		<polygon fill="#CCCCCC" points="6.525,32.828 5.636,33.774 6.26,35.443 7.044,33.172 		"/>
		<polygon fill="#FC8D25" points="5.363,35.639 5.924,35.639 6.216,38.452 5.636,39.789 5.079,38.452 		"/>
		<polygon fill="#FFFFFF" points="4.76,32.837 5.636,33.774 4.999,35.031 4.241,33.181 		"/>
		<polygon fill="#5A8FBD" points="4.247,33.136 5.636,39.789 3.57,35.848 3.913,35.358 3.252,34.844 3.882,33.337 		"/>
		<polygon fill="#3F73A1" points="7.061,33.121 5.636,39.789 7.926,36.139 7.625,35.502 8.279,34.982 7.577,33.36 		"/>
		<polygon fill="#5A8FBD" points="7.061,33.121 5.636,39.789 7.704,35.848 7.361,35.358 8.021,34.844 7.577,33.36 		"/>
		<polygon fill="#FFFFFF" points="6.525,32.828 5.636,33.774 6.275,35.031 7.044,33.172 		"/>
		<path fill="#FC8D25" d="M5.363,34.973h0.561c0.126,0.26,0.115,0.487,0,0.709H5.363C5.247,35.46,5.237,35.233,5.363,34.973z"/>
		<path fill="#3F73A1" d="M5.558,41.657c0.015-0.489,0.052-1.069,0.111-1.939c0.059,0.871,0.1,1.451,0.117,1.939
			C5.71,41.658,5.634,41.657,5.558,41.657z"/>
		
			<ellipse transform="matrix(-0.9762 -0.2168 0.2168 -0.9762 9.1105 61.7204)" fill="#F2CAA9" cx="7.941" cy="30.36" rx="0.312" ry="0.657"/>
		<path fill="#BA9D3F" d="M8.073,29.451c0.086-1.508-0.55-2.902-2.446-2.902c-1.897,0-2.534,1.395-2.446,2.904
			c0.154,0.038,0.314,0.314,0.384,0.673c0.123,0.082,0.213,0.034,0.213-0.27c0-0.898,0.113-1.693,0.714-1.883
			c0.571-0.18,0.697,0.215,1.133,0.215c0.436,0,0.574-0.373,1.133-0.215c0.58,0.164,0.714,0.985,0.714,1.883
			c0,0.291,0.083,0.347,0.198,0.279C7.741,29.756,7.913,29.467,8.073,29.451z"/>
		<path fill="#BA9D3F" d="M7.922,27.329c-0.114,0.846-4.185,2.741-5.23,2.884c-0.324-4.35,2.351-1.965,2.612-2.844
			C5.366,27.16,7.976,27.511,7.922,27.329z"/>
		<path fill="#BA9D3F" d="M6.025,26.631c-0.068,0.852,1.33,3.322,2.321,3.684c0.373-3.114-0.435-2.94-0.987-3.192
			C7.161,27.032,5.935,26.798,6.025,26.631z"/>
	</g>
	<g>
		<path fill="#6F7478" d="M15.252,40.2c1.233-0.295,2.949-0.992,3.173,0.006c0.267,1.186,0.595,3.995,0.939,6.724
			c0.074,0.588-0.68,0.893-0.867,0.95c-0.839,0.253-1.561,0.333-2.49,0.458l-0.759-8.133C15.248,40.202,15.251,40.2,15.252,40.2z"/>
		<path fill="#6F7478" d="M11.509,40.2c-1.556-0.371-2.794-1.237-3.066-0.015c-0.285,1.28-0.596,4.084-0.924,6.703
			c-0.084,0.671,0.614,0.959,0.84,1.017c0.806,0.21,1.5,0.312,2.395,0.433l0.759-8.133C11.512,40.202,11.51,40.2,11.509,40.2z"/>
		<path fill="#27557D" d="M10.296,48.179l-0.04,0.095c1.917,0.243,4.276,0.247,6.2,0.012c-0.018-0.039-0.035-0.075-0.052-0.109
			h-6.108V48.179z"/>
		<path fill="#969DA3" d="M9.526,48.16c0.425-1.227-0.546-6.969-1.082-8.024c0.305-1.084,3.145-1.323,3.901-1.94
			c0.359,0.315,0.614,0.388,1.021,0.388c0.407,0,0.676-0.082,1.033-0.398c0.559,0.456,3.491,0.811,3.993,1.896
			c-0.57,1.21-1.618,6.971-1.164,8.074C15.317,48.53,11.49,48.556,9.526,48.16z"/>
		<polygon fill="#FFFFFF" points="11.45,38.716 11.359,41.13 13.379,46.259 15.37,41.13 15.247,38.65 14.399,38.185 12.345,38.195 
					"/>
		<rect x="12.345" y="37.353" fill="#D1A886" width="2.018" height="2.09"/>
		<path fill="#FCB024" d="M13.7,40.734l0.14-0.297l-0.475-1.152l-0.467,1.134l0.149,0.316C13.264,40.734,13.482,40.734,13.7,40.734z
			"/>
		<polygon fill="#CCCCCC" points="12.344,38.195 13.365,39.286 12.639,41.229 11.741,38.596 		"/>
		<polygon fill="#CCCCCC" points="14.399,38.185 13.365,39.286 14.092,41.229 15.002,38.585 		"/>
		<polygon fill="#FCB024" points="13.046,41.457 13.7,41.457 14.039,44.73 13.365,46.286 12.716,44.73 		"/>
		<polygon fill="#FFFFFF" points="12.345,38.195 13.365,39.286 12.623,40.749 11.741,38.596 		"/>
		<polygon fill="#3F73A1" points="11.747,38.544 13.365,46.286 10.96,41.699 11.359,41.13 10.59,40.532 11.323,38.777 		"/>
		<polygon fill="#3F73A1" points="15.022,38.527 13.365,46.286 15.769,41.699 15.37,41.13 16.14,40.532 15.623,38.805 		"/>
		<polygon fill="#FFFFFF" points="14.399,38.184 13.365,39.286 14.108,40.749 15.002,38.585 		"/>
		<path fill="#FCB024" d="M13.046,40.681H13.7c0.146,0.303,0.134,0.567,0,0.826h-0.653C12.912,41.248,12.901,40.983,13.046,40.681z"
			/>
		<path fill="#27557D" d="M13.273,48.46c0.017-0.568,0.061-1.244,0.129-2.257c0.069,1.013,0.115,1.689,0.137,2.257
			C13.451,48.46,13.361,48.46,13.273,48.46z"/>
		<polygon fill="#FFFFFF" points="11.145,38.778 11.395,41.092 13.405,46.194 15.386,41.092 15.637,38.778 14.678,38.162 
			12.103,38.162 		"/>
		<rect x="12.103" y="37.334" fill="#D1A886" width="2.553" height="2.08"/>
		<path fill="#F2CAA9" d="M13.39,38.558c1.006,0,1.937-1.151,2.428-2.559c0.029,0.029,0.062,0.048,0.096,0.054
			c0.201,0.034,0.429-0.343,0.512-0.839c0.083-0.498-0.012-0.928-0.213-0.96c-0.015-0.002-0.028-0.002-0.043-0.001
			c0.099-1.746-0.625-3.359-2.782-3.359c-2.158,0-2.881,1.616-2.781,3.364c-0.022-0.006-0.044-0.007-0.065-0.003
			c-0.199,0.032-0.296,0.463-0.213,0.96s0.312,0.873,0.512,0.839c0.043-0.007,0.081-0.032,0.113-0.073
			C11.445,37.397,12.38,38.558,13.39,38.558z"/>
		<path fill="#6B451D" d="M16.173,34.251c0.099-1.746-0.626-3.359-2.782-3.359c-2.158,0-2.881,1.616-2.782,3.363
			c0.175,0.044,0.356,0.363,0.437,0.779c0.14,0.094,0.242,0.039,0.242-0.313c0-1.039,0.129-1.96,0.811-2.179
			c0.65-0.208,0.792,0.25,1.288,0.25c0.495,0,0.652-0.433,1.288-0.25c0.66,0.189,0.811,1.141,0.811,2.179
			c0,0.338,0.094,0.402,0.225,0.324C15.794,34.606,15.99,34.272,16.173,34.251z"/>
		<path fill="#27557D" d="M13.723,40.699l0.14-0.296l-0.473-1.146l-0.465,1.127l0.148,0.314
			C13.291,40.699,13.507,40.699,13.723,40.699z"/>
		<polygon fill="#CCCCCC" points="12.103,38.162 13.39,39.258 12.668,41.191 11.502,38.561 		"/>
		<polygon fill="#6F7478" points="11.502,38.561 13.39,46.222 10.74,41.996 11.089,41.258 10.333,40.655 11.145,38.778 		"/>
		<polygon fill="#CCCCCC" points="14.678,38.162 13.39,39.258 14.113,41.191 15.279,38.561 		"/>
		<polygon fill="#27557D" points="13.074,41.418 13.723,41.418 14.062,44.674 13.39,46.222 12.745,44.674 		"/>
		<polygon fill="#FFFFFF" points="12.103,38.162 13.39,39.258 12.652,40.713 11.502,38.561 		"/>
		<polygon fill="#969DA3" points="11.502,38.561 13.39,46.222 10.998,41.659 11.395,41.092 10.629,40.497 11.145,38.778 		"/>
		<polygon fill="#6F7478" points="15.279,38.561 13.39,46.222 16.041,41.996 15.693,41.258 16.448,40.655 15.637,38.778 		"/>
		<polygon fill="#969DA3" points="15.279,38.561 13.39,46.222 15.783,41.659 15.386,41.092 16.152,40.497 15.637,38.778 		"/>
		<polygon fill="#FFFFFF" points="14.678,38.162 13.39,39.258 14.129,40.713 15.279,38.561 		"/>
		<path fill="#27557D" d="M13.074,40.646h0.65c0.146,0.3,0.133,0.564,0,0.821h-0.65C12.94,41.21,12.929,40.946,13.074,40.646z"/>
		<path fill="#6F7478" d="M13.228,48.46c0.106,0.001,0.213,0.001,0.319,0c0.039-0.55-0.078-2.015-0.16-2.256
			C13.306,46.398,13.189,47.881,13.228,48.46z"/>
	</g>
</g>
<g>
	<path fill="#57291E" d="M30.51,47.988c-0.13,0.224-0.26,0.909-0.234,1.27c0.026,0.361,0.03,0.397,0.204,0.504
		c0.174,0.108,0.233,0.119,0.27,0.024c0.037-0.095,0.416,0.333,0.601,0.467c0.186,0.134,0.604,0.401,1.13,0.413
		c0.526,0.012,0.992-0.08,0.992-0.416s-0.164-0.493-0.547-0.816c-0.383-0.322-0.759-0.938-0.87-1.218
		c-0.111-0.279-0.485-0.21-0.652-0.12s-0.336,0.608-0.559,0.429C30.622,48.347,30.584,47.898,30.51,47.988z"/>
	<path fill="#57291E" d="M33.435,47.988c-0.15,0.214-0.299,0.867-0.27,1.211s0.035,0.379,0.234,0.481
		c0.201,0.102,0.268,0.113,0.31,0.024c0.043-0.091,0.478,0.317,0.692,0.446c0.214,0.128,0.696,0.382,1.301,0.394
		c0.605,0.011,1.143-0.076,1.143-0.397s-0.188-0.471-0.63-0.778s-0.874-0.895-1.002-1.161c-0.128-0.267-0.559-0.201-0.752-0.115
		c-0.193,0.085-0.388,0.58-0.644,0.409C33.562,48.331,33.52,47.903,33.435,47.988z"/>
	<g>
		<path fill="#27557D" d="M30.609,35.338h1.692c0.233,0,0.422,0.19,0.422,0.424v12.522c0,0.233-0.19,0.422-0.422,0.422h-1.692
			c-0.233,0-0.422-0.19-0.422-0.422V35.76C30.186,35.528,30.375,35.338,30.609,35.338z"/>
		<path fill="#27557D" d="M33.525,35.338h1.692c0.233,0,0.424,0.19,0.424,0.424v12.522c0,0.233-0.19,0.422-0.424,0.422h-1.692
			c-0.233,0-0.422-0.19-0.422-0.422V35.76C33.102,35.528,33.292,35.338,33.525,35.338z"/>
	</g>
	<g>
		<path fill="#FFD7B7" d="M42.191,29.28l0.25,1.057l1.023,0.048c0.545,0.026,1.063,0.066,1.298-0.226
			c0.21-0.261,0.393-1.394-0.055-1.429l-1.415-0.192L42.191,29.28z"/>
		<polygon fill="#FFFFFF" points="41.638,29.045 41.886,30.885 42.682,30.763 42.435,28.923 		"/>
		<path fill="#27557D" d="M34.397,25.842c-0.103-0.176-0.059-0.363,0.025-0.595c0.958-0.179,2.187,0.584,2.534,1.295l1.218,2.401
			l3.727-0.024c0.001,0,0.003,0.002,0.003,0.003l0.248,2.02c0,0.001-0.002,0.003-0.002,0.003l-4.183,0.096
			c-0.696,0.016-1.093-0.464-1.249-0.697C36.438,29.928,34.511,26.038,34.397,25.842z"/>
	</g>
	<path fill="#3F73A1" d="M35.908,36.499c-1.989,0.554-3.977,0.583-5.966,0L29.62,29.52c-0.05-1.105-1.152-2.354-0.883-2.895
		c0.496-0.998,2.584-1.688,3.299-2.269c0.275,0.242,0.576,0.384,0.887,0.384s0.613-0.143,0.887-0.384
		c0.523,0.426,1.794,0.903,2.623,1.525c-0.496,1.598-0.122,1.98-0.204,3.739L35.908,36.499z"/>
	<polygon fill="#FFFFFF" points="31.195,24.91 31.387,26.69 32.934,30.617 34.459,26.69 34.651,24.91 33.913,24.435 31.932,24.435 	
		"/>
	<rect x="31.932" y="23.797" fill="#D1A886" width="1.964" height="1.6"/>
	<path fill="#FC8D25" d="M33.179,26.388l0.108-0.227l-0.364-0.882l-0.357,0.867l0.114,0.242
		C32.845,26.388,33.012,26.388,33.179,26.388z"/>
	<polygon fill="#CCCCCC" points="31.932,24.435 32.922,25.278 32.367,26.766 31.469,24.742 	"/>
	<polygon fill="#27557D" points="31.469,24.742 32.922,30.637 30.883,27.385 31.151,26.818 30.569,26.353 31.195,24.91 	"/>
	<polygon fill="#CCCCCC" points="33.913,24.435 32.922,25.278 33.479,26.766 34.376,24.742 	"/>
	<polygon fill="#FC8D25" points="32.679,26.941 33.179,26.941 33.439,29.446 32.922,30.637 32.426,29.446 	"/>
	<polygon fill="#FFFFFF" points="31.932,24.435 32.922,25.278 32.354,26.398 31.469,24.742 	"/>
	<polygon fill="#3F73A1" points="31.469,24.742 32.922,30.637 31.081,27.127 31.387,26.69 30.798,26.232 31.195,24.91 	"/>
	<polygon fill="#27557D" points="34.376,24.742 32.922,30.637 34.962,27.385 34.694,26.818 35.276,26.353 34.651,24.91 	"/>
	<polygon fill="#3F73A1" points="34.376,24.742 32.922,30.637 34.764,27.127 34.459,26.69 35.047,26.232 34.651,24.91 	"/>
	<polygon fill="#FFFFFF" points="33.913,24.435 32.922,25.278 33.491,26.398 34.376,24.742 	"/>
	<path fill="#FC8D25" d="M32.679,26.347h0.5c0.112,0.232,0.103,0.434,0,0.632h-0.5C32.576,26.78,32.567,26.577,32.679,26.347z"/>
	<path fill="#27557D" d="M32.962,36.925c-0.195-1.952-0.229-4.548-0.039-6.797C33.113,32.376,33.156,34.973,32.962,36.925z"/>
	<g>
		<path fill="#FFD7B7" d="M35.731,32.959l-0.018,0.185l0.198-0.002l1.589-0.013c0.179-0.002,0.281-0.077,0.341-0.184
			c0.05-0.091,0.095-0.319,0.01-0.318l-1.804,0.02C35.89,32.646,35.747,32.788,35.731,32.959z"/>
		<path fill="#FFE7D4" d="M37.903,32.664c0.003-0.036-0.02-0.039-0.034-0.039l-0.362,0.007c0.007,0.16,0.189,0.179,0.34,0.13
			C37.87,32.754,37.899,32.71,37.903,32.664z"/>
	</g>
	<path fill="#FFD7B7" d="M38.293,32.618l0.271,1.051l-0.883,0.518c-0.47,0.276-0.91,0.554-1.254,0.405
		c-0.307-0.133-0.997-1.051-0.616-1.29l1.135-0.808L38.293,32.618z"/>
	<path fill="#D1A886" d="M34.795,32.929l-0.158,1.075l0.933,0.421c0.496,0.224,0.96,0.342,1.293,0.175
		c0.332-0.166,0.836-1.113,0.431-1.31l-1.32-0.633L34.795,32.929z"/>
	<path fill="#FFD7B7" d="M34.674,32.937l-0.158,1.075l0.933,0.421c0.496,0.224,0.964,0.454,1.29,0.268
		c0.29-0.166,0.88-1.151,0.475-1.348l-1.245-0.699L34.674,32.937z"/>
	<polygon fill="#FFFFFF" points="34.247,32.515 33.799,34.316 34.584,34.496 35.032,32.696 	"/>
	<path fill="#27557D" d="M28.696,26.869c-0.03-0.202,0.08-0.36,0.242-0.543c0.957,0.187,1.849,1.547,1.908,2.335l0.216,2.482
		l3.474,1.351c0.001,0,0.002,0.003,0.002,0.004l-0.514,1.97c0,0.001-0.003,0.003-0.004,0.002l-3.924-1.452
		c-0.653-0.242-0.845-0.834-0.904-1.108C29.087,31.419,28.729,27.094,28.696,26.869z"/>
	<path fill="#D1A886" d="M37.319,32.77l0.027,0.04l-1.588,0.81c-0.165,0.068-0.289,0.039-0.385-0.036
		c-0.082-0.064-0.213-0.257-0.134-0.289l1.667-0.69C37.051,32.543,37.238,32.618,37.319,32.77z"/>
	<path fill="#FFD7B7" d="M37.258,32.646l0.089,0.162l-0.183,0.076l-1.467,0.611c-0.165,0.068-0.289,0.039-0.387-0.036
		c-0.082-0.064-0.213-0.257-0.134-0.289l1.686-0.654C37.008,32.457,37.176,32.495,37.258,32.646z"/>
	<path fill="#FFE7D4" d="M35.145,33.228c-0.017-0.031,0.003-0.045,0.016-0.049l0.336-0.136c0.057,0.15-0.103,0.239-0.261,0.252
		C35.211,33.297,35.166,33.268,35.145,33.228z"/>
	<polygon fill="#FFFFFF" points="38.672,32.152 39.31,33.896 38.548,34.159 37.91,32.416 	"/>
	<path fill="#3F73A1" d="M43.981,26.897c0.008-0.204,0.106-1.048-0.076-1.214c-0.931,0.288-1.3,0.288-1.398,0.772l-0.815,3.995
		l-3.31,1.714c-0.001,0.001-0.002,0.003-0.002,0.004l0.722,1.904c0,0.001,0.003,0.002,0.004,0.002l3.747-1.862
		c0.623-0.31,0.752-0.919,0.781-1.198C43.686,30.513,43.971,27.123,43.981,26.897z"/>
	<path fill="#2C3945" d="M45.924,47.988c0.15,0.214,0.299,0.867,0.27,1.211s-0.035,0.379-0.234,0.481
		c-0.201,0.102-0.268,0.113-0.31,0.024c-0.043-0.091-0.478,0.317-0.692,0.446c-0.214,0.128-0.696,0.382-1.301,0.394
		c-0.605,0.011-1.143-0.076-1.143-0.397s0.188-0.471,0.631-0.778c0.441-0.307,0.873-0.895,1.001-1.161
		c0.128-0.267,0.559-0.201,0.752-0.115c0.193,0.085,0.388,0.58,0.644,0.409C45.796,48.331,45.839,47.903,45.924,47.988z"/>
	<path fill="#2C3945" d="M48.83,47.988c0.13,0.224,0.26,0.909,0.234,1.27c-0.026,0.361-0.03,0.397-0.204,0.504
		s-0.233,0.119-0.27,0.024s-0.416,0.333-0.602,0.467c-0.186,0.134-0.604,0.401-1.13,0.413c-0.526,0.012-0.992-0.08-0.992-0.416
		s0.164-0.493,0.547-0.816c0.383-0.322,0.757-0.938,0.87-1.218c0.111-0.279,0.485-0.21,0.652-0.12s0.336,0.608,0.559,0.429
		C48.719,48.347,48.756,47.898,48.83,47.988z"/>
	<g>
		<path fill="#3F73A1" d="M44.134,35.338h1.691c0.233,0,0.424,0.19,0.424,0.424v12.522c0,0.233-0.19,0.422-0.424,0.422h-1.691
			c-0.233,0-0.424-0.19-0.424-0.422V35.76C43.711,35.528,43.902,35.338,44.134,35.338z"/>
		<path fill="#3F73A1" d="M47.05,35.338h1.692c0.233,0,0.422,0.19,0.422,0.424v12.522c0,0.233-0.19,0.422-0.422,0.422H47.05
			c-0.233,0-0.422-0.19-0.422-0.422V35.76C46.628,35.528,46.818,35.338,47.05,35.338z"/>
	</g>
	<path fill="#27557D" d="M51.463,36.601l0.651-0.327c0.15-0.075,0.334-0.015,0.409,0.136l0.397,0.789l1.474-0.741
		c0.398-0.201,0.887-0.038,1.088,0.36l1.528,3.04c0.201,0.398,0.038,0.887-0.36,1.088l-5.187,2.608v-5.622l1.126-0.566l-0.232-0.461
		c-0.075-0.148-0.257-0.208-0.406-0.134l-0.49,0.245v-0.415H51.463z M48.796,39.272l1.474-0.741l-0.397-0.789
		c-0.075-0.15-0.015-0.334,0.136-0.409l1.456-0.732v0.416l-0.96,0.483c-0.148,0.075-0.208,0.257-0.134,0.406l0.231,0.461
		l0.863-0.434v5.622l-0.411,0.206c-0.398,0.201-0.887,0.038-1.088-0.36l-1.528-3.04C48.236,39.961,48.398,39.473,48.796,39.272z"/>
	<path fill="#5A8FBD" d="M49.433,36.499c-1.989,0.554-3.978,0.583-5.966,0l-0.322-6.979c-0.065-1.419,0.011-2.368-0.492-3.392
		c0.794-0.74,2.318-1.293,2.908-1.773c0.275,0.242,0.576,0.384,0.887,0.384s0.613-0.143,0.887-0.384
		c0.554,0.452,1.948,0.96,2.766,1.636c-0.803,1.3-0.271,2.006-0.346,3.627L49.433,36.499z"/>
	<polygon fill="#FFFFFF" points="44.72,24.91 44.912,26.69 46.459,30.617 47.984,26.69 48.176,24.91 47.439,24.435 45.457,24.435 	
		"/>
	<rect x="45.457" y="23.797" fill="#D1A886" width="1.964" height="1.6"/>
	<path fill="#93B9DB" d="M46.704,26.388l0.108-0.227l-0.364-0.882l-0.357,0.867l0.114,0.242
		C46.371,26.388,46.538,26.388,46.704,26.388z"/>
	<polygon fill="#CCCCCC" points="45.457,24.435 46.449,25.278 45.892,26.766 44.995,24.742 	"/>
	<polygon fill="#3F73A1" points="44.995,24.742 46.449,30.637 44.409,27.385 44.677,26.818 44.094,26.353 44.72,24.91 	"/>
	<polygon fill="#CCCCCC" points="47.439,24.435 46.449,25.278 47.004,26.766 47.901,24.742 	"/>
	<polygon fill="#93B9DB" points="46.204,26.941 46.704,26.941 46.964,29.446 46.449,30.637 45.951,29.446 	"/>
	<polygon fill="#FFFFFF" points="45.457,24.435 46.449,25.278 45.88,26.398 44.995,24.742 	"/>
	<polygon fill="#5A8FBD" points="44.995,24.742 46.449,30.637 44.606,27.127 44.912,26.69 44.324,26.232 44.72,24.91 	"/>
	<polygon fill="#FFFFFF" points="47.439,24.435 46.449,25.278 47.017,26.398 47.901,24.742 	"/>
	<path fill="#93B9DB" d="M46.204,26.347h0.5c0.112,0.232,0.103,0.434,0,0.632h-0.5C46.101,26.78,46.093,26.577,46.204,26.347z"/>
	<path fill="#3F73A1" d="M46.487,36.925c-0.194-1.952-0.229-4.548-0.039-6.797C46.638,32.376,46.682,34.973,46.487,36.925z"/>
	<path fill="#F2CAA9" d="M33.777,24.569c2.051-0.533,1.774-6.52-1.546-5.504C29.125,20.017,31.727,25.104,33.777,24.569z"/>
	<path fill="#57291E" d="M34.821,20.477c-0.214,0.428-1.857,1.199-2.572,1.255C31.534,21.788,32.196,19.022,34.821,20.477z"/>
	<path fill="#57291E" d="M31.766,19.17c-1.375,0.788-1.466,3.456,0.203,4.628c-0.296-0.355-0.338-0.787-0.151-1.534
		c0.109,0.073,0.496,0.608,0.438-0.303c-0.109-1.683,1.155-1.807,2.557-1.405C34.75,19.118,32.851,18.549,31.766,19.17z"/>
	
		<ellipse transform="matrix(-0.994 0.1098 -0.1098 -0.994 65.3619 40.3787)" fill="#F2CAA9" cx="31.569" cy="21.989" rx="0.398" ry="0.714"/>
	<path fill="#F2CAA9" d="M45.652,24.569c-2.051-0.533-1.774-6.52,1.546-5.504C50.304,20.017,47.701,25.104,45.652,24.569z"/>
	<path fill="#99780B" d="M47.449,19.156c1.606,0.63,1.68,3.469,0.011,4.641c0.296-0.355,0.338-0.787,0.151-1.534
		c-0.109,0.073-0.381,0.585-0.438-0.303c-0.109-1.68-1.084-1.327-1.914-1.385c-0.348-0.025-0.412-0.363-0.696,0.02
		C44.826,19.251,46.129,18.638,47.449,19.156z"/>
	
		<ellipse transform="matrix(-0.994 -0.1098 0.1098 -0.994 93.0106 49.0968)" fill="#F2CAA9" cx="47.857" cy="21.987" rx="0.398" ry="0.714"/>
	<g>
		<g>
			
				<rect x="50.153" y="34.324" transform="matrix(-0.9417 0.3364 -0.3364 -0.9417 110.2905 51.1154)" fill="#F2CAA9" width="1.129" height="1.575"/>
			<path fill="#F2CAA9" d="M50.143,34.834l1.051-0.129l0.101,0.826l0.437,0.847c-0.448,0.149-1.208-0.148-1.212,0.495L50.143,34.834
				z"/>
			<path fill="#F2CAA9" d="M51.864,36.702l-0.538-1.588c-0.045-0.122-0.185-0.183-0.306-0.136l0,0
				c-0.011,0.004-0.022,0.01-0.032,0.016l-0.049-0.131c-0.047-0.128-0.193-0.19-0.32-0.141l0,0
				c-0.089,0.035-0.146,0.114-0.156,0.203c-0.055-0.016-0.114-0.015-0.171,0.008l0,0c-0.138,0.053-0.205,0.208-0.152,0.346
				l0.687,1.726l0.141,0.128c0.052,0.138,0.171-0.154,0.309-0.206l0,0c0.131-0.05,0.168-0.157,0.13-0.289
				C51.424,36.529,51.982,37.018,51.864,36.702z"/>
			<path fill="#F2CAA9" d="M51.176,37.418L51.176,37.418c0.093-0.038,0.138-0.147,0.1-0.241l-0.129-0.368l0.002-0.016l-0.468-0.149
				l0.254,0.673C50.973,37.412,51.082,37.457,51.176,37.418z"/>
			<path fill="#F2CAA9" d="M50.559,37.056c-0.002-0.176,0.177-0.258,0.283-0.015l0.425-1.433l-0.591-0.48l-0.303,0.514
				c-0.179,0.022-0.249,0.316-0.249,0.466l-0.001,1.165L50.559,37.056z"/>
			<path fill="#F2CAA9" d="M51.803,37.152L51.803,37.152c0.099-0.025,0.158-0.124,0.136-0.223l-0.206-0.604l-0.426,0.205
				l0.273,0.486C51.603,37.115,51.705,37.176,51.803,37.152z"/>
			<path fill="#F2CAA9" d="M51.507,37.26L51.507,37.26c0.094-0.038,0.138-0.147,0.101-0.241l-0.146-0.361l0.01-0.579l-0.294,0.863
				l0.089,0.217C51.304,37.253,51.413,37.298,51.507,37.26z"/>
			<path fill="#F2CAA9" d="M52.06,37.021L52.06,37.021c0.099-0.025,0.158-0.124,0.136-0.223l-0.485-0.899l-0.471,0.084l0.617,0.803
				l-0.02,0.099C51.86,36.985,51.962,37.046,52.06,37.021z"/>
		</g>
		<polygon fill="#FFFFFF" points="51.846,35.894 50.007,36.15 49.946,35.727 51.784,35.47 		"/>
		<path fill="#3F73A1" d="M48.628,26.992l1.454-1.005c0.536,0.354,0.648,1.309,0.679,1.536l1.116,8.029
			c0,0.002-0.001,0.003-0.003,0.003l-2.017,0.281c-0.002,0-0.003-0.001-0.004-0.002l-1.228-8.839
			C48.625,26.994,48.627,26.992,48.628,26.992z"/>
	</g>
	<path fill="#5A8FBD" d="M50.102,25.991c-0.166,0.297-0.345,0.625-0.448,1.626c-0.103,1.001-0.109,4.091-0.104,6.417
		c0.003,2.326-1.94,0.028-1.94,0.028l0.527-7.155l1.068-1.068L50.102,25.991z"/>
	<polygon fill="#3F73A1" points="47.901,24.742 46.449,30.637 48.488,27.385 48.22,26.818 48.802,26.353 48.176,24.91 	"/>
	<polygon fill="#5A8FBD" points="47.901,24.742 46.449,30.637 48.29,27.127 47.984,26.69 48.573,26.232 48.176,24.91 	"/>
</g>
</svg>
