<?xml version="1.0" encoding="utf-8"?>
<!-- Generator: Adobe Illustrator 17.0.0, SVG Export Plug-In . SVG Version: 6.00 Build 0)  -->
<!DOCTYPE svg PUBLIC "-//W3C//DTD SVG 1.1//EN" "http://www.w3.org/Graphics/SVG/1.1/DTD/svg11.dtd" [
	<!ENTITY ns_flows "http://ns.adobe.com/Flows/1.0/">
	<!ENTITY ns_extend "http://ns.adobe.com/Extensibility/1.0/">
	<!ENTITY ns_ai "http://ns.adobe.com/AdobeIllustrator/10.0/">
	<!ENTITY ns_graphs "http://ns.adobe.com/Graphs/1.0/">
]>
<svg version="1.1" id="Layer_1" xmlns:x="&ns_extend;" xmlns:i="&ns_ai;" xmlns:graph="&ns_graphs;"
	 xmlns="http://www.w3.org/2000/svg" xmlns:xlink="http://www.w3.org/1999/xlink" xmlns:a="http://ns.adobe.com/AdobeSVGViewerExtensions/3.0/"
	 x="0px" y="0px" width="59px" height="63px" viewBox="0 0 59 63" enable-background="new 0 0 59 63" xml:space="preserve">
<g>
	<ellipse fill="#8EACC2" cx="43.272" cy="24.721" rx="8.576" ry="5.655"/>
	<rect x="13.652" y="9.679" fill="#5979A6" width="2.818" height="6.44"/>
	<rect x="4.966" y="17.988" fill="#50B6C7" width="26.182" height="33.063"/>
	<rect x="28.306" y="24.571" fill="#50B6C7" width="26.182" height="26.48"/>
	<rect x="8.557" y="21.386" fill="#196B94" width="8.303" height="2.472"/>
	<rect x="8.557" y="24.785" fill="#196B94" width="8.303" height="2.472"/>
	<rect x="8.557" y="28.184" fill="#FFFFFF" width="8.303" height="2.472"/>
	<rect x="8.557" y="31.584" fill="#196B94" width="8.303" height="2.472"/>
	<rect x="8.557" y="34.983" fill="#196B94" width="8.303" height="2.472"/>
	<rect x="8.557" y="38.382" fill="#196B94" width="8.303" height="2.472"/>
	<rect x="18.693" y="21.386" fill="#196B94" width="8.303" height="2.472"/>
	<rect x="18.693" y="24.785" fill="#196B94" width="8.303" height="2.472"/>
	<rect x="18.693" y="28.184" fill="#196B94" width="8.303" height="2.472"/>
	<rect x="18.693" y="31.584" fill="#196B94" width="8.303" height="2.472"/>
	<rect x="18.693" y="34.983" fill="#FFFFFF" width="8.303" height="2.472"/>
	<rect x="18.693" y="38.382" fill="#196B94" width="8.303" height="2.472"/>
	<rect x="35.583" y="29.807" fill="#5979A6" width="3.591" height="10.197"/>
	<rect x="41.049" y="29.807" fill="#5979A6" width="3.591" height="10.197"/>
	<rect x="46.327" y="29.807" fill="#5979A6" width="3.591" height="10.197"/>
	<rect x="7.284" y="14.246" fill="#50B6C7" width="12.568" height="5.985"/>
</g>
</svg>
