<?xml version="1.0" encoding="utf-8"?>
<!-- Generator: Adobe Illustrator 17.0.0, SVG Export Plug-In . SVG Version: 6.00 Build 0)  -->
<!DOCTYPE svg PUBLIC "-//W3C//DTD SVG 1.1//EN" "http://www.w3.org/Graphics/SVG/1.1/DTD/svg11.dtd">
<svg version="1.1" id="Layer_1" xmlns="http://www.w3.org/2000/svg" xmlns:xlink="http://www.w3.org/1999/xlink" x="0px" y="0px"
	 width="59px" height="63px" viewBox="0 0 59 63" enable-background="new 0 0 59 63" xml:space="preserve">
<g>
	<path fill="#181819" d="M36.615,39.759c-0.034-0.391-0.76-0.365-0.76-0.365l-3.906,0.143c-0.026-0.117-0.169-0.611-0.169-0.611
		s2.63-0.013,3.737-0.091s0.992-0.68,0.992-0.68s0.129-4.976,0.103-5.927c-0.026-0.951-0.244-4.538-0.334-5.284
		s-0.09-1.684-0.835-1.954c-0.746-0.27-1.529-0.45-2.083-0.502c-0.552-0.052-4.988,0-6.789,0.308
		c-1.8,0.308-2.841,0.566-3.407,1.659s-0.9,1.003-0.9,1.003c-0.425,0.064-1.838,0.412-2.096,0.54s-0.669,0.604-0.772,1.029
		c-0.103,0.425,0.205,0.36,0.205,0.36c-0.578,1.169-0.738,2.816-0.738,2.816c-0.33,0.091-0.664,0.225-0.979,0.376v-1.728
		c0-0.107-0.087-0.195-0.195-0.195h-0.52c-0.107,0-0.195,0.087-0.195,0.195v2.176c0,0.018,0.004,0.034,0.007,0.051
		c-0.51,0.315-0.853,0.584-0.853,0.584c-0.46,0.413-0.769,0.873-0.975,1.323c0.293-0.367,0.743-0.545,2.239-0.572
		c1.835-0.033,3.473-0.164,5.275,0s1.442,1.06,1.442,1.644s-0.36,3.139-0.721,4.024c-0.155,0.38-0.164,0.571-0.269,0.67
		c1.122,0.133,5.958-0.065,5.958-0.065c0.173-0.742,0.237-0.883,0.367-1.286c0.13-0.404,1.181-2.096,1.998-0.276
		c0.801,1.785,0.52,4.361,0.52,4.361c0.261-0.013,1.107-0.143,1.107-0.143s2.201-0.651,2.916-0.859
		c0.716-0.208,0.63-0.599,0.63-0.599S36.649,40.15,36.615,39.759z M35.278,30.805c0,0,0.007-0.137,0.138-0.072
		c0.13,0.065,0.463,0.261,0.463,0.261s0.087,0.051,0.087,0.296s0,1.932,0,1.932s0.014,0.173-0.181,0.173s-0.282-0.025-0.369-0.058
		c-0.083-0.032-0.101-0.044-0.138-0.326C35.243,32.73,35.278,30.805,35.278,30.805z M32.504,29.456
		c0.17,0.065,0.569,0.276,0.569,0.276s0.122,0.122,0.13,0.398s0,0.471,0,0.471h-0.846l0.001-0.308v-0.722
		C32.357,29.569,32.333,29.391,32.504,29.456z M28.916,39.573c-0.092,0.481-0.382,1.02-1.246,0.991
		c-0.864-0.028-3.902,0.283-3.598-0.439c0,0,0.135-0.566,1.14-0.772c1.005-0.205,3.265-0.227,3.265-0.227
		S29.008,39.091,28.916,39.573z M30.571,31.873c0,0-9.778-0.12-11.541,0.301c0,0,0.165-2.23,0.949-3.164
		c0,0,10.079-0.919,11.661-0.316C31.64,28.694,30.841,31.045,30.571,31.873z M31.265,33.37c-0.113-1.326,0.072-2.025,0.432-3.155
		c0.36-1.13,0.545-0.843,0.545-0.843l-0.061,2.803C32.179,34.011,31.265,33.37,31.265,33.37z"/>
	<path fill="#181819" d="M14.743,37.216c-0.556,0.339-0.907,1.087-1.125,1.787c0.229-0.002,0.996,0.014,1.145,0.35
		c0.176,0.396,0.122,0.864-0.133,0.92c-0.221,0.05-1.063-0.025-1.29-0.046c-0.03,0.194-0.041,0.313-0.041,0.313l2.073,0.041
		c-0.209-0.236-0.507-0.907-0.609-2.81C14.763,37.772,14.749,37.542,14.743,37.216z"/>
	<path fill="#181819" d="M36.89,32.228c0.026,0.951-0.103,5.927-0.103,5.927s0.03,0.156-0.087,0.32l1.002,0.02V25.098l-1.643,0.1
		c0.409,0.396,0.422,1.135,0.496,1.744C36.646,27.69,36.864,31.277,36.89,32.228z"/>
	<path fill="#181819" d="M15.609,40.185h1.04c0.107,0,0.195-0.087,0.195-0.195v-4.374c0-0.107-0.087-0.195-0.195-0.195h-1.04
		c-0.107,0-0.195,0.087-0.195,0.195v4.374C15.415,40.098,15.502,40.185,15.609,40.185z"/>
	<path fill="#181819" d="M21.463,40.185h1.35c0.107,0,0.195-0.087,0.195-0.195v-4.374c0-0.107-0.087-0.195-0.195-0.195h-1.35
		c-0.107,0-0.195,0.087-0.195,0.195v4.374C21.269,40.098,21.356,40.185,21.463,40.185z"/>
	<path fill="#181819" d="M17.244,40.185h1.425c0.107,0,0.195-0.087,0.195-0.195v-4.374c0-0.107-0.087-0.195-0.195-0.195h-1.425
		c-0.107,0-0.195,0.087-0.195,0.195v4.374C17.049,40.098,17.136,40.185,17.244,40.185z"/>
	<path fill="#181819" d="M19.331,40.185h1.425c0.107,0,0.195-0.087,0.195-0.195v-4.374c0-0.107-0.087-0.195-0.195-0.195h-1.425
		c-0.107,0-0.195,0.087-0.195,0.195v4.374C19.136,40.098,19.224,40.185,19.331,40.185z"/>
	<path fill="#181819" d="M26.244,41.16c-0.463,0-7.171-0.155-9.196-0.223c-2.024-0.067-3.931-0.205-3.931-0.205
		c-0.086,0.411-0.052,2.751-0.052,2.751c0.159,0.098,0.844,0.181,1.699,0.248c0.243,1.693,1.071,2.941,2.056,2.941
		c0.943,0,1.743-1.146,2.021-2.732c0.186,0.006,0.294,0.009,0.294,0.009s6.013,0.171,6.869,0.171s1.489-0.103,1.489-0.103l1.49-0.08
		c-0.139-1.441,0.093-2.991,0.093-2.991C28.914,40.971,26.706,41.16,26.244,41.16z M15.452,42.362l1.156,0.052
		c0.122,0.006,0.216,0.109,0.21,0.23l-0.027,0.618c-0.006,0.122-0.109,0.216-0.23,0.21l-1.156-0.052
		c-0.122-0.006-0.216-0.109-0.21-0.23l0.027-0.618C15.227,42.451,15.331,42.356,15.452,42.362z M14.539,43.332l-0.651-0.038
		c-0.107-0.006-0.19-0.098-0.183-0.205l0.037-0.628c0.006-0.107,0.098-0.19,0.205-0.183l0.651,0.038
		c0.107,0.006,0.19,0.098,0.183,0.205l-0.037,0.628C14.738,43.255,14.646,43.338,14.539,43.332z M20.451,43.431
		c-0.004,0.122-0.105,0.217-0.227,0.215l-2.753-0.076c-0.122-0.004-0.218-0.105-0.215-0.227l0.019-0.668
		c0.004-0.122,0.105-0.218,0.227-0.215l2.753,0.076c0.122,0.004,0.218,0.105,0.215,0.227L20.451,43.431z M22.761,43.585
		c-0.004,0.138-0.118,0.248-0.257,0.244l-1.317-0.033c-0.138-0.004-0.248-0.118-0.244-0.257l0.018-0.704
		c0.004-0.138,0.118-0.248,0.257-0.244l1.317,0.033c0.138,0.004,0.248,0.118,0.244,0.257L22.761,43.585z M25.081,43.632
		c0,0.122-0.099,0.221-0.221,0.221h-1.198c-0.122,0-0.221-0.099-0.221-0.221V42.92c0-0.122,0.099-0.221,0.221-0.221h1.198
		c0.122,0,0.221,0.099,0.221,0.221V43.632z"/>
	<ellipse fill="#181819" cx="30.473" cy="42.701" rx="1.264" ry="3.971"/>
	<ellipse fill="#181819" cx="38.027" cy="41.182" rx="0.54" ry="2.428"/>
	<ellipse fill="#181819" cx="39.248" cy="40.888" rx="0.486" ry="2.183"/>
	<ellipse fill="#181819" cx="44.1" cy="40.061" rx="0.215" ry="1.217"/>
	<ellipse fill="#181819" cx="44.536" cy="39.964" rx="0.124" ry="1.121"/>
	<polygon fill="#181819" points="37.945,25.098 37.945,38.494 45.55,38.754 45.55,32.34 	"/>
	<path fill="#181819" d="M40.057,40.688l3.66-0.788c0,0-0.013-0.16,0.006-0.332c0.013-0.124,0.035-0.293,0.035-0.293l-3.821,0.129
		C40.013,39.804,40.057,40.688,40.057,40.688z"/>
</g>
<path fill="#181819" d="M48.418,49.747H9.963V17.82h30.014l8.631-7.165H1.332v46.258h55.716V27.292l-8.631,7.166L48.418,49.747
	L48.418,49.747z"/>
</svg>
